:SAMPLES-PER-SECOND 30
:FULLY-SPECIFIED
:DEGREES
164
root  -53.448 38.3209 10.5607 176.691 55.6417 169.771
RightUpLeg  -27.3799 -10.3609 -1.10228
RightLeg  37.4678 -2.63716 -2.44169
RightFoot  -14.2523 -0.219464 -4.8405
RightToes  5.82063e-011 0 -3.6325e-017
Spine  20.6142 -2.82656 6.13742
Spine1  7.80417 -2.34336 1.69987
HEad  -32.7266 -7.96716 -0.577087
LeftShoulder1  0.119136 3.13444 -26.0631
LeftArm  -22.5717 -3.49596 -44.0276
LeftForeArm  77.6971 -79.1527 -93.8912
LeftHand  -0.0247773 5.89842 2.79168
RightShoulder  -0.199908 -4.19602 21.4026
RightArm  -25.3843 2.9618 40.6388
RightForeArm  123.998 71.9233 143.486
RightHand  -1.47365 9.52925 -11.797
LeftUpLeg  -11.689 3.3362 2.56878
LeftLeg  40.933 5.21198 5.20988
LeftFoot  -15.9309 -0.178178 -6.82289
LeftToes  -1.20963e-009 8.6283e-011 2.04439e-011
165
root  -53.0849 38.5932 10.3535 176.763 56.5563 169.783
RightUpLeg  -25.5488 -8.54727 -1.1891
RightLeg  35.177 -3.15372 -2.65364
RightFoot  -14.2391 -0.202976 -4.21984
RightToes  5.82063e-011 0 -3.6325e-017
Spine  20.3313 -2.83434 6.70062
Spine1  7.66486 -2.24393 1.5197
HEad  -32.7565 -7.82548 -1.16031
LeftShoulder1  0.0916662 3.22282 -26.4089
LeftArm  -22.3731 -2.58303 -43.716
LeftForeArm  78.9514 -79.1182 -95.426
LeftHand  -0.0268822 5.99918 2.61081
RightShoulder  -0.200316 -4.19647 21.4528
RightArm  -25.0036 2.53215 40.9719
RightForeArm  123.862 72.0029 143.295
RightHand  -1.34521 8.62643 -11.4614
LeftUpLeg  -13.8819 1.13147 2.18989
LeftLeg  41.0425 4.88432 4.92567
LeftFoot  -15.6167 -0.161817 -6.82972
LeftToes  -1.20963e-009 8.6283e-011 2.04439e-011
166
root  -52.6873 38.8985 10.0968 176.617 57.47 169.699
RightUpLeg  -23.2838 -7.44821 -1.37575
RightLeg  32.4978 -2.98059 -2.30392
RightFoot  -14.3416 -0.191833 -3.62257
RightToes  5.82063e-011 0 -3.6325e-017
Spine  19.984 -2.74266 7.28728
Spine1  7.39338 -2.02355 1.25709
HEad  -32.5856 -7.22905 -1.00261
LeftShoulder1  0.112437 3.15819 -26.3137
LeftArm  -22.3557 -1.66036 -43.6139
LeftForeArm  78.5674 -79.0864 -95.6682
LeftHand  -0.0145725 5.90895 2.97724
RightShoulder  -0.271764 -4.43407 21.9377
RightArm  -24.8383 1.96174 40.5655
RightForeArm  124.432 71.6787 144.062
RightHand  -1.4384 9.1643 -11.7945
LeftUpLeg  -15.8531 -1.10934 1.66784
LeftLeg  40.5313 4.27285 4.28591
LeftFoot  -15.2983 -0.130491 -6.42425
LeftToes  -1.20963e-009 8.6283e-011 2.04439e-011
167
root  -52.2358 39.1706 9.79826 176.353 58.7294 169.75
RightUpLeg  -20.6919 -6.71054 -1.4361
RightLeg  29.7378 -2.33705 -1.68597
RightFoot  -14.613 -0.183405 -2.96474
RightToes  5.82063e-011 0 -3.6325e-017
Spine  19.4396 -2.62203 8.26181
Spine1  7.58204 -1.5877 0.423971
HEad  -32.5939 -8.37763 -1.44644
LeftShoulder1  0.0553888 3.33353 -26.4186
LeftArm  -22.1069 -1.19354 -43.2687
LeftForeArm  79.2315 -79.0675 -96.4304
LeftHand  -0.00751735 6.19686 3.16514
RightShoulder  -0.393358 -4.83131 22.6978
RightArm  -24.7128 1.7879 39.8866
RightForeArm  124.266 71.4352 144.53
RightHand  -1.48226 9.20011 -12.1203
LeftUpLeg  -17.5917 -2.2627 1.37371
LeftLeg  39.769 3.1559 3.19234
LeftFoot  -15.1477 -0.120022 -6.33505
LeftToes  -1.20963e-009 8.6283e-011 2.04439e-011
168
root  -51.734 39.4097 9.47735 176.167 60.0939 169.838
RightUpLeg  -18.0837 -5.75684 -1.46744
RightLeg  26.9719 -1.78179 -1.22613
RightFoot  -15.1132 -0.163046 -1.8681
RightToes  5.82063e-011 0 -3.6325e-017
Spine  18.9627 -2.28353 8.38587
Spine1  7.25857 -1.39455 0.889698
HEad  -31.9 -8.41485 -1.91474
LeftShoulder1  -0.0284861 3.59045 -26.8018
LeftArm  -22.136 -0.223801 -42.7498
LeftForeArm  80.2402 -79.056 -97.2607
LeftHand  -0.021665 5.7404 2.39747
RightShoulder  -0.397285 -4.85742 22.3923
RightArm  -24.9254 0.920965 39.5265
RightForeArm  125.24 71.0059 145.509
RightHand  -1.46402 8.59681 -12.4666
LeftUpLeg  -19.2539 -2.93043 1.17826
LeftLeg  38.2929 1.62282 1.7454
LeftFoot  -15.1194 -0.130528 -6.69376
LeftToes  -1.20963e-009 8.6283e-011 2.04439e-011
169
root  -51.174 39.6143 9.14412 175.712 61.5908 169.744
RightUpLeg  -15.3683 -5.33969 -1.60949
RightLeg  24.401 -0.492111 -0.477848
RightFoot  -15.8171 -0.132219 -0.631463
RightToes  5.82063e-011 0 -3.6325e-017
Spine  18.2356 -1.98122 8.15919
Spine1  7.13722 -1.31039 1.34411
HEad  -30.71 -7.93794 -2.04626
LeftShoulder1  -0.0600858 3.68495 -26.9539
LeftArm  -22.2215 1.11996 -41.8703
LeftForeArm  82.2058 -78.9804 -99.5437
LeftHand  -0.0164712 5.84077 3.14768
RightShoulder  -0.393717 -4.8409 22.4816
RightArm  -25.1349 0.484397 38.9626
RightForeArm  127.571 70.8471 146.131
RightHand  -1.35938 8.69925 -11.5125
LeftUpLeg  -20.6729 -3.33985 0.878293
LeftLeg  36.1678 0.538965 0.782621
LeftFoot  -14.658 -0.107429 -6.73863
LeftToes  -1.20963e-009 8.6283e-011 2.04439e-011
170
root  -50.5802 39.7368 8.7859 175.246 62.9725 169.824
RightUpLeg  -12.6526 -5.73755 -1.68529
RightLeg  22.2418 1.10636 0.231416
RightFoot  -16.516 -0.120055 -0.187034
RightToes  5.82063e-011 0 -3.6325e-017
Spine  17.5574 -1.86543 8.27108
Spine1  7.05325 -1.27531 1.41714
HEad  -29.9694 -7.54013 -2.17807
LeftShoulder1  -0.124914 3.88009 -26.984
LeftArm  -22.1244 2.00049 -41.2859
LeftForeArm  82.8313 -78.9718 -100.014
LeftHand  -0.0173472 5.93703 2.75918
RightShoulder  -0.445508 -5.00641 22.7532
RightArm  -25.0287 0.224279 38.3103
RightForeArm  128.391 70.8018 146.328
RightHand  -1.09987 6.67598 -10.8923
LeftUpLeg  -21.9278 -3.5097 0.677607
LeftLeg  33.6876 -0.219381 0.194945
LeftFoot  -14.3606 -0.101066 -7.08024
LeftToes  -1.20963e-009 8.6283e-011 2.04439e-011
